<svg width="63" height="17" viewBox="0 0 63 17" fill="none" xmlns="http://www.w3.org/2000/svg">
<path d="M5.3821 16.6364V0.272726H6.4304V16.6364H5.3821ZM8.40554 5.50781C8.34588 4.94957 8.09446 4.51491 7.65128 4.20384C7.21236 3.89276 6.64134 3.73722 5.93821 3.73722C5.44389 3.73722 5.01989 3.81179 4.66619 3.96094C4.3125 4.11008 4.0419 4.3125 3.8544 4.56818C3.6669 4.82386 3.57102 5.11577 3.56676 5.44389C3.56676 5.71662 3.62855 5.95312 3.75213 6.15341C3.87997 6.35369 4.05256 6.52415 4.26989 6.66477C4.48722 6.80114 4.72798 6.91619 4.99219 7.00994C5.25639 7.10369 5.52273 7.18253 5.79119 7.24645L7.01847 7.55327C7.51278 7.66832 7.98793 7.82386 8.44389 8.01989C8.90412 8.21591 9.31534 8.46307 9.67756 8.76136C10.044 9.05966 10.3338 9.41974 10.5469 9.84162C10.7599 10.2635 10.8665 10.7578 10.8665 11.3246C10.8665 12.0916 10.6705 12.767 10.2784 13.3509C9.88636 13.9304 9.3196 14.3842 8.57812 14.7124C7.84091 15.0362 6.94815 15.1982 5.89986 15.1982C4.88139 15.1982 3.99716 15.0405 3.24716 14.7251C2.50142 14.4098 1.91761 13.9496 1.49574 13.3445C1.07813 12.7393 0.852273 12.0021 0.818182 11.1328H3.15128C3.18537 11.5888 3.32599 11.968 3.57315 12.2706C3.82031 12.5732 4.14205 12.799 4.53835 12.9482C4.93892 13.0973 5.38636 13.1719 5.88068 13.1719C6.39631 13.1719 6.84801 13.0952 7.2358 12.9418C7.62784 12.7841 7.93466 12.5668 8.15625 12.2898C8.37784 12.0085 8.49077 11.6804 8.49503 11.3054C8.49077 10.9645 8.39063 10.6832 8.1946 10.4616C7.99858 10.2358 7.72372 10.0483 7.37003 9.89915C7.0206 9.74574 6.61151 9.60937 6.14276 9.49006L4.65341 9.10653C3.57528 8.82955 2.72301 8.4098 2.09659 7.8473C1.47443 7.28054 1.16335 6.52841 1.16335 5.59091C1.16335 4.8196 1.37216 4.14418 1.78977 3.56463C2.21165 2.98509 2.7848 2.53551 3.50923 2.21591C4.23366 1.89204 5.05398 1.73011 5.97017 1.73011C6.89915 1.73011 7.71307 1.89204 8.41193 2.21591C9.11506 2.53551 9.6669 2.98082 10.0675 3.55185C10.468 4.11861 10.6747 4.7706 10.6875 5.50781H8.40554ZM17.3976 1.73011C18.024 1.73437 18.6333 1.84517 19.2257 2.0625C19.8223 2.27557 20.3592 2.625 20.8365 3.1108C21.3137 3.59233 21.693 4.23793 21.9743 5.04759C22.2555 5.85724 22.3961 6.85866 22.3961 8.05185C22.4004 9.17685 22.2811 10.1825 22.0382 11.0689C21.7995 11.951 21.4565 12.6967 21.0091 13.3061C20.5616 13.9155 20.0225 14.38 19.3919 14.6996C18.7612 15.0192 18.0517 15.179 17.2633 15.179C16.4366 15.179 15.7037 15.017 15.0645 14.6932C14.4295 14.3693 13.916 13.9261 13.524 13.3636C13.1319 12.8011 12.8912 12.1577 12.8017 11.4332H15.1348C15.2541 11.9531 15.497 12.3665 15.8635 12.6733C16.2342 12.9759 16.7008 13.1271 17.2633 13.1271C18.171 13.1271 18.8699 12.733 19.3599 11.9446C19.85 11.1562 20.095 10.0611 20.095 8.65909H20.0055C19.7967 9.03409 19.5261 9.35795 19.1937 9.63068C18.8613 9.89915 18.4842 10.1058 18.0623 10.2507C17.6447 10.3956 17.2015 10.468 16.7328 10.468C15.9657 10.468 15.2754 10.2848 14.6618 9.91832C14.0524 9.55185 13.5687 9.04901 13.2108 8.4098C12.8571 7.7706 12.6781 7.03977 12.6738 6.21733C12.6738 5.36506 12.8699 4.60014 13.2619 3.92259C13.6582 3.24077 14.21 2.70384 14.9174 2.31179C15.6248 1.91548 16.4515 1.72159 17.3976 1.73011ZM17.4039 3.64773C16.9437 3.64773 16.5282 3.76065 16.1575 3.98651C15.791 4.2081 15.5012 4.51065 15.2882 4.89418C15.0794 5.27344 14.975 5.69744 14.975 6.16619C14.9792 6.63068 15.0836 7.05256 15.2882 7.43182C15.497 7.81108 15.7804 8.11151 16.1383 8.3331C16.5005 8.55469 16.9139 8.66548 17.3784 8.66548C17.7235 8.66548 18.0453 8.59943 18.3436 8.46733C18.6419 8.33523 18.9018 8.15199 19.1234 7.91761C19.3493 7.67898 19.524 7.40838 19.6476 7.10582C19.7754 6.80327 19.8372 6.48366 19.8329 6.14702C19.8329 5.69957 19.7264 5.28622 19.5133 4.90696C19.3045 4.5277 19.0169 4.22301 18.6504 3.9929C18.2882 3.76278 17.8727 3.64773 17.4039 3.64773ZM29.0694 1.73011C29.6958 1.73437 30.3052 1.84517 30.8976 2.0625C31.4941 2.27557 32.0311 2.625 32.5083 3.1108C32.9856 3.59233 33.3649 4.23793 33.6461 5.04759C33.9274 5.85724 34.068 6.85866 34.068 8.05185C34.0723 9.17685 33.9529 10.1825 33.7101 11.0689C33.4714 11.951 33.1284 12.6967 32.6809 13.3061C32.2335 13.9155 31.6944 14.38 31.0637 14.6996C30.4331 15.0192 29.7235 15.179 28.9352 15.179C28.1085 15.179 27.3755 15.017 26.7363 14.6932C26.1014 14.3693 25.5879 13.9261 25.1958 13.3636C24.8038 12.8011 24.563 12.1577 24.4735 11.4332H26.8066C26.926 11.9531 27.1689 12.3665 27.5353 12.6733C27.9061 12.9759 28.3727 13.1271 28.9352 13.1271C29.8429 13.1271 30.5417 12.733 31.0318 11.9446C31.5218 11.1562 31.7669 10.0611 31.7669 8.65909H31.6774C31.4686 9.03409 31.198 9.35795 30.8656 9.63068C30.5332 9.89915 30.1561 10.1058 29.7342 10.2507C29.3166 10.3956 28.8734 10.468 28.4047 10.468C27.6376 10.468 26.9473 10.2848 26.3336 9.91832C25.7243 9.55185 25.2406 9.04901 24.8826 8.4098C24.5289 7.7706 24.35 7.03977 24.3457 6.21733C24.3457 5.36506 24.5417 4.60014 24.9338 3.92259C25.3301 3.24077 25.8819 2.70384 26.5893 2.31179C27.2967 1.91548 28.1234 1.72159 29.0694 1.73011ZM29.0758 3.64773C28.6156 3.64773 28.2001 3.76065 27.8294 3.98651C27.4629 4.2081 27.1731 4.51065 26.96 4.89418C26.7512 5.27344 26.6468 5.69744 26.6468 6.16619C26.6511 6.63068 26.7555 7.05256 26.96 7.43182C27.1689 7.81108 27.4522 8.11151 27.8102 8.3331C28.1724 8.55469 28.5858 8.66548 29.0502 8.66548C29.3954 8.66548 29.7172 8.59943 30.0154 8.46733C30.3137 8.33523 30.5737 8.15199 30.7953 7.91761C31.0211 7.67898 31.1958 7.40838 31.3194 7.10582C31.4473 6.80327 31.5091 6.48366 31.5048 6.14702C31.5048 5.69957 31.3983 5.28622 31.1852 4.90696C30.9764 4.5277 30.6887 4.22301 30.3223 3.9929C29.96 3.76278 29.5446 3.64773 29.0758 3.64773ZM37.1378 15.1406C36.75 15.1406 36.4176 15.0043 36.1406 14.7315C35.8636 14.4588 35.7273 14.1264 35.7315 13.7344C35.7273 13.3509 35.8636 13.0227 36.1406 12.75C36.4176 12.4773 36.75 12.3409 37.1378 12.3409C37.5128 12.3409 37.8388 12.4773 38.1158 12.75C38.397 13.0227 38.5398 13.3509 38.544 13.7344C38.5398 13.9943 38.4716 14.2308 38.3395 14.4439C38.2116 14.657 38.0412 14.8274 37.8281 14.9553C37.6193 15.0788 37.3892 15.1406 37.1378 15.1406ZM45.3004 15.179C44.4482 15.179 43.6854 15.0192 43.0121 14.6996C42.3388 14.3757 41.804 13.9325 41.4077 13.37C41.0156 12.8075 40.8068 12.1641 40.7812 11.4396H43.0824C43.125 11.9766 43.3572 12.4155 43.7791 12.7564C44.201 13.093 44.7081 13.2614 45.3004 13.2614C45.7649 13.2614 46.1783 13.1548 46.5405 12.9418C46.9027 12.7287 47.1882 12.4325 47.397 12.0533C47.6058 11.674 47.7081 11.2415 47.7038 10.7557C47.7081 10.2614 47.6037 9.82244 47.3906 9.43892C47.1776 9.0554 46.8857 8.75497 46.5149 8.53764C46.1442 8.31605 45.718 8.20526 45.2365 8.20526C44.8445 8.20099 44.4588 8.27344 44.0795 8.42259C43.7003 8.57173 43.3999 8.76776 43.1783 9.01065L41.0369 8.65909L41.7209 1.90909H49.3146V3.89062H43.6832L43.3061 7.36151H43.3828C43.6257 7.07599 43.9688 6.83949 44.4119 6.65199C44.8551 6.46023 45.3409 6.36435 45.8693 6.36435C46.6619 6.36435 47.3693 6.55185 47.9915 6.92685C48.6136 7.29758 49.1037 7.80895 49.4616 8.46094C49.8196 9.11293 49.9986 9.85866 49.9986 10.6982C49.9986 11.5632 49.7983 12.3345 49.3977 13.0121C49.0014 13.6854 48.4496 14.2159 47.7422 14.6037C47.0391 14.9872 46.2251 15.179 45.3004 15.179ZM56.9787 15.2493C55.9261 15.2493 55.0227 14.983 54.2685 14.4503C53.5185 13.9134 52.9411 13.1399 52.5362 12.13C52.1357 11.1158 51.9354 9.89489 51.9354 8.46733C51.9396 7.03977 52.142 5.82528 52.5426 4.82386C52.9474 3.81818 53.5249 3.05114 54.2749 2.52273C55.0291 1.99432 55.9304 1.73011 56.9787 1.73011C58.027 1.73011 58.9283 1.99432 59.6825 2.52273C60.4368 3.05114 61.0142 3.81818 61.4148 4.82386C61.8196 5.82955 62.022 7.04403 62.022 8.46733C62.022 9.89915 61.8196 11.1222 61.4148 12.1364C61.0142 13.1463 60.4368 13.9176 59.6825 14.4503C58.9325 14.983 58.0313 15.2493 56.9787 15.2493ZM56.9787 13.2486C57.7969 13.2486 58.4425 12.8459 58.9155 12.0405C59.3928 11.2308 59.6314 10.0398 59.6314 8.46733C59.6314 7.42756 59.5227 6.55398 59.3054 5.84659C59.0881 5.1392 58.7813 4.60653 58.3849 4.24858C57.9886 3.88636 57.5199 3.70526 56.9787 3.70526C56.1648 3.70526 55.5213 4.11008 55.0483 4.91974C54.5753 5.72514 54.3366 6.90767 54.3324 8.46733C54.3281 9.51136 54.4325 10.3892 54.6456 11.1009C54.8629 11.8125 55.1697 12.3494 55.5661 12.7116C55.9624 13.0696 56.4332 13.2486 56.9787 13.2486Z" fill="#1C1C1C"/>
</svg>
